<?xml version="1.0" encoding="UTF-8"?>
<svg width="40px" height="40px" viewBox="0 0 40 40" version="1.1" xmlns="http://www.w3.org/2000/svg" xmlns:xlink="http://www.w3.org/1999/xlink">
    <title>000_Filters</title>
    <defs>
        <filter id="filter-1">
            <feColorMatrix in="SourceGraphic" type="matrix" values="0 0 0 0 0.000000 0 0 0 0 0.000000 0 0 0 0 0.000000 0 0 0 1.000000 0"></feColorMatrix>
        </filter>
        <polygon id="path-2" points="0 0.0001875 21.3775 0.0001875 21.3775 21.6945625 0 21.6945625"></polygon>
    </defs>
    <g id="000_Filters" stroke="none" stroke-width="1" fill="#787B80" fill-rule="evenodd">
        <g id="Group-3" transform="translate(19.500000, 20.500000) rotate(-270.000000) translate(-19.500000, -20.500000) translate(8.000000, 9.000000)" filter="url(#filter-1)">
            <g transform="translate(0.875000, 0.875000)">
                <mask id="mask-3" fill="white">
                    <use xlink:href="#path-2"></use>
                </mask>
                <g id="Clip-2"></g>
                <path d="M10.695375,15.8989375 C10.6935,15.8989375 10.691625,15.8976875 10.68975,15.8976875 C10.68725,15.8976875 10.685375,15.8995625 10.6835,15.8995625 C9.96475,15.8964375 9.380375,15.3114375 9.380375,14.5914375 C9.380375,13.8708125 9.965375,13.2845625 10.685375,13.2826875 C10.686625,13.2826875 10.6885,13.2833125 10.68975,13.2833125 C10.691,13.2833125 10.69225,13.2826875 10.6935,13.2826875 C11.412875,13.2858125 11.99725,13.8714375 11.99725,14.5914375 C11.99725,15.3108125 11.414125,15.8951875 10.695375,15.8989375 M11.381,11.9964375 L11.381,0.0001875 L9.999125,0.0001875 L9.999125,11.9958125 C8.84725,12.3026875 7.99225,13.3445625 7.99225,14.5914375 C7.99225,15.8383125 8.84725,16.8795625 9.999125,17.1876875 L9.999125,21.6945625 L11.381,21.6945625 L11.381,17.1870625 C12.531625,16.8789375 13.385375,15.8376875 13.385375,14.5914375 C13.385375,13.3451875 12.531625,12.3039375 11.381,11.9964375 M2.702875,11.9026875 C2.701,11.9026875 2.69975,11.9014375 2.697875,11.9014375 C2.695375,11.9014375 2.6935,11.9026875 2.691,11.9026875 C1.97225,11.9008125 1.387875,11.3145625 1.387875,10.5958125 C1.387875,9.8745625 1.972875,9.2883125 2.6935,9.2870625 C2.69475,9.2870625 2.696,9.2876875 2.697875,9.2876875 C2.699125,9.2876875 2.69975,9.2870625 2.701,9.2870625 C3.420375,9.2895625 4.005375,9.8751875 4.005375,10.5958125 C4.005375,11.3145625 3.421625,11.8995625 2.702875,11.9026875 M3.3885,8.0001875 L3.3885,0.0001875 L2.006625,0.0001875 L2.006625,7.9995625 C0.85475,8.3070625 -0.00025,9.3483125 -0.00025,10.5958125 C-0.00025,11.8426875 0.85475,12.8845625 2.006625,13.1908125 L2.006625,21.6945625 L3.3885,21.6945625 L3.3885,13.1901875 C4.539125,12.8826875 5.392875,11.8414375 5.392875,10.5958125 C5.392875,9.3495625 4.539125,8.3076875 3.3885,8.0001875 M18.687875,7.9070625 C18.686,7.9070625 18.684125,7.9058125 18.68225,7.9058125 C18.67975,7.9058125 18.677875,7.9070625 18.676,7.9070625 C17.956625,7.9039375 17.372875,7.3183125 17.372875,6.5989375 C17.372875,5.8789375 17.957875,5.2926875 18.677875,5.2901875 C18.679125,5.2901875 18.680375,5.2914375 18.68225,5.2914375 C18.6835,5.2914375 18.68475,5.2908125 18.686,5.2908125 C19.405375,5.2933125 19.98975,5.8789375 19.98975,6.5989375 C19.98975,7.3183125 19.406625,7.9026875 18.687875,7.9070625 M19.372875,4.0039375 L19.372875,0.0001875 L17.991,0.0001875 L17.991,4.0039375 C16.83975,4.3108125 15.98475,5.3526875 15.98475,6.5989375 C15.98475,7.8458125 16.83975,8.8876875 17.991,9.1945625 L17.991,21.6945625 L19.372875,21.6945625 L19.372875,9.1939375 C20.5235,8.8864375 21.377875,7.8451875 21.377875,6.5989375 C21.377875,5.3526875 20.5235,4.3120625 19.372875,4.0039375" id="Fill-1" fill="#000000" mask="url(#mask-3)"></path>
            </g>
        </g>
    </g>
</svg>