<?xml version="1.0" encoding="UTF-8"?>
<svg width="40px" height="40px" viewBox="0 0 40 40" version="1.1" xmlns="http://www.w3.org/2000/svg" xmlns:xlink="http://www.w3.org/1999/xlink">
    <title>069_Place_On_Map</title>
    <defs>
        <path d="M10,0.00011795888 C15.4854613,-0.0152831763 19.9491551,4.41084052 19.98,9.896237 C19.98,16.812237 11.252,26.412237 10.884,26.812237 L10.884,26.812237 L10,27.776237 L9.12000002,26.812237 C8.74800002,26.408237 -1.0658141e-14,16.824237 -1.0658141e-14,9.896237 C0.0308466544,4.40300298 4.50674371,-0.0263447444 10,0.00011795888 Z M10,1.20002999 C7.67955483,1.18534093 5.44834954,2.09341823 3.79778887,3.72447227 C2.1472282,5.35552631 1.21269049,7.57577869 1.2,9.896237 C1.2,16.436237 10,26.000237 10,26.000237 C10,26.000237 18.8,16.436237 18.8,9.896237 C18.7883712,7.57544683 17.8541713,5.35457431 16.2033786,3.72329092 C14.5525858,2.09200752 12.3207644,1.18427545 10,1.20002999 Z M10,6.50023699 C11.8768544,6.50244117 13.3977959,8.02338261 13.4,9.900237 C13.4,11.7780052 11.8777682,13.300237 10,13.300237 C8.12223187,13.300237 6.60000002,11.7780052 6.60000002,9.900237 C6.60000002,8.02246885 8.12223187,6.50023699 10,6.50023699 Z M10,7.700237 C8.78497357,7.700237 7.80000002,8.68521055 7.80000002,9.900237 C7.80000002,11.1152635 8.78497357,12.100237 10,12.100237 C11.2150265,12.100237 12.2,11.1152635 12.2,9.900237 C12.2,8.68521055 11.2150265,7.700237 10,7.700237 Z" id="path-1"></path>
    </defs>
    <g id="069_Place_On_Map" stroke="none" stroke-width="1" fill="none" fill-rule="evenodd">
        <g id="0865_OnMap_Med_IVI_Solid" transform="translate(10.000000, 6.000000)">
            <mask id="mask-2" fill="white">
                <use xlink:href="#path-1"></use>
            </mask>
            <use id="0865_OnMap" fill="#000000" fill-rule="nonzero" xlink:href="#path-1"></use>
        </g>
    </g>
</svg>