<?xml version="1.0" encoding="UTF-8"?>
<svg width="40px" height="40px" viewBox="0 0 40 40" version="1.1" xmlns="http://www.w3.org/2000/svg" xmlns:xlink="http://www.w3.org/1999/xlink">
    <title>265_Location</title>
    <defs>
        <polygon id="path-1" points="0 0 27.76216 0 27.76216 27.76208 0 27.76208"></polygon>
    </defs>
    <g id="265_Location" stroke="none" stroke-width="1" fill="none" fill-rule="evenodd">
        <g id="Group-8" transform="translate(6.000000, 6.000000)">
            <path d="M13.84144,17.76952 C12.14144,17.76952 10.75824,16.38632 10.75824,14.68632 C10.75824,12.98632 12.14144,11.60232 13.84144,11.60232 C15.54144,11.60232 16.92464,12.98632 16.92464,14.68632 C16.92464,16.38632 15.54144,17.76952 13.84144,17.76952 M13.84144,9.84312 C11.17104,9.84312 8.99824,12.01592 8.99824,14.68632 C8.99824,17.35592 11.17104,19.52872 13.84144,19.52872 C16.51184,19.52872 18.68544,17.35592 18.68544,14.68632 C18.68544,12.01592 16.51184,9.84312 13.84144,9.84312" id="Fill-1" fill="#000000"></path>
            <path d="M13.84144,13.27184 C13.06064,13.27184 12.42704,13.90464 12.42704,14.68624 C12.42704,15.46704 13.06064,16.10064 13.84144,16.10064 C14.62304,16.10064 15.25584,15.46704 15.25584,14.68624 C15.25584,13.90464 14.62304,13.27184 13.84144,13.27184" id="Fill-3" fill="#000000"></path>
            <g id="Group-7" transform="translate(0.000000, 0.562480)">
                <mask id="mask-2" fill="white">
                    <use xlink:href="#path-1"></use>
                </mask>
                <g id="Clip-6"></g>
                <path d="M14.76136,24.07888 L14.76136,21.69888 L13.00136,21.69888 L13.00136,24.08368 C8.16776,23.67808 4.30536,19.82768 3.88376,14.99808 L6.30056,14.99808 L6.30056,13.23888 L3.88456,13.23888 C4.31016,8.41488 8.17096,4.56928 13.00136,4.16448 L13.00136,6.53728 L14.76136,6.53728 L14.76136,4.16848 C19.55416,4.60848 23.37496,8.44128 23.79816,13.23888 L21.46216,13.23888 L21.46216,14.99808 L23.79896,14.99808 C23.37976,19.80048 19.55736,23.63888 14.76136,24.07888 L14.76136,24.07888 Z M27.76216,13.23888 L25.55816,13.23888 C25.12616,7.47168 20.52456,2.85888 14.76136,2.40928 L14.76136,0.23728 L13.00136,0.23728 L13.00136,2.40528 C7.20136,2.81808 2.55896,7.44528 2.12456,13.23888 L-0.00024,13.23888 L-0.00024,14.99808 L2.12376,14.99808 C2.55416,20.79728 7.19816,25.42928 13.00136,25.84288 L13.00136,27.99968 L14.76136,27.99968 L14.76136,25.83808 C20.52776,25.38928 25.13096,20.77088 25.55896,14.99808 L27.76216,14.99808 L27.76216,13.23888 Z" id="Fill-5" fill="#000000" mask="url(#mask-2)"></path>
            </g>
        </g>
    </g>
</svg>