<?xml version="1.0" encoding="UTF-8"?>
<svg width="40px" height="40px" viewBox="0 0 40 40" version="1.1" xmlns="http://www.w3.org/2000/svg" xmlns:xlink="http://www.w3.org/1999/xlink">
    <title>040_MagnifyGlas</title>
    <defs>
        <path d="M28.7832567,23.8526163 L21.1512567,17.3606163 C24.2537199,12.280864 22.930923,5.6697075 18.1127849,2.1747531 C13.2946469,-1.3202013 6.59950527,-0.525052728 2.73400759,4.00121378 C-1.13149008,8.52748028 -0.868983259,15.2645622 3.33698721,19.4763282 C7.54295769,23.6880942 14.2796717,23.9598777 18.8112567,20.1006163 L26.4472567,26.5966163 L28.7832567,23.8526163 Z M4.89525664,19.2686163 C1.08517003,16.1015926 0.101911283,10.6546664 2.56420674,6.35537569 C5.02650219,2.05608503 10.2221584,0.147955191 14.8817517,1.83169781 C19.541345,3.51544042 22.3171364,8.30405039 21.4624286,13.1842424 C20.6077208,18.0644343 16.3697293,21.6246163 11.4152567,21.6246163 C9.03351105,21.6246163 6.72686571,20.7910881 4.89525664,19.2686163" id="path-1"></path>
    </defs>
    <g id="040_MagnifyGlas" stroke="none" stroke-width="1" fill="none" fill-rule="evenodd">
        <g id="0174_MagnifyGlass_Med_IVI" transform="translate(6.000000, 7.000000)">
            <mask id="mask-2" fill="white">
                <use xlink:href="#path-1"></use>
            </mask>
            <use id="0174_MagnifyGlass" fill="#000000" xlink:href="#path-1"></use>
        </g>
    </g>
</svg>